<svg id="Layer_1" data-name="Layer 1" xmlns="http://www.w3.org/2000/svg" viewBox="0 0 579.53 103.47"><defs><style>.cls-1{fill:#1d1d1b;}</style></defs><title>ceees</title><rect class="cls-1" x="319.04" y="49.43" width="51.65" height="16.61" transform="translate(60.18 260.77) rotate(-45)"/><polygon class="cls-1" points="0 103.16 82.2 103.16 82.2 86.17 18.77 86.17 18.77 58.77 18.77 58.77 18.77 42.19 18.77 42.19 18.77 16.99 82.2 16.99 82.2 0 0 0 0 103.16"/><polygon class="cls-1" points="111.93 103.16 194.13 103.16 194.13 86.17 130.7 86.17 130.7 58.77 194.12 58.77 194.12 42.19 130.7 42.19 130.7 16.99 194.13 16.99 194.13 0 111.93 0 111.93 103.16"/><polygon class="cls-1" points="216.05 103.16 298.24 103.16 298.24 86.17 234.82 86.17 234.82 58.77 298.24 58.77 298.24 42.19 234.82 42.19 234.82 16.99 298.24 16.99 298.24 0 216.05 0 216.05 103.16"/><polygon class="cls-1" points="393.23 103.16 475.43 103.16 475.43 86.17 412 86.17 412 58.77 475.43 58.77 475.43 42.19 412 42.19 412 16.99 475.43 16.99 475.43 0 393.23 0 393.23 103.16"/><polygon class="cls-1" points="579.53 16.99 579.53 0 497.33 0 497.33 58.77 562.94 58.77 562.94 86.23 497.26 86.48 497.26 103.47 579.53 103.47 579.53 58.77 579.53 57.33 579.53 42.19 516.1 42.19 516.1 16.99 579.53 16.99"/></svg>